# Blender 4.2.4 LTS
# www.blender.org
o Cube
v -12.737999 0.922804 0.000284
v -14.683485 0.922804 0.000284
v -12.737997 0.155793 0.000284
v -14.683481 0.155793 0.000284
v -11.853435 0.852559 -0.352859
v -13.798919 0.852559 -0.352859
v -11.853435 0.143934 -0.059337
v -13.798919 0.143934 -0.059337
v -10.968871 0.652520 -0.652238
v -12.914357 0.652520 -0.652238
v -10.968871 0.110162 -0.109879
v -12.914353 0.110162 -0.109880
v -10.084309 0.353141 -0.852278
v -12.029791 0.353141 -0.852278
v -10.084308 0.059618 -0.143652
v -12.029791 0.059618 -0.143652
v -9.199744 -0.000002 -0.922522
v -11.145226 -0.000002 -0.922522
v -9.199744 -0.000002 -0.155511
v -11.145226 -0.000002 -0.155511
v -8.315179 -0.353145 -0.852277
v -10.260661 -0.353145 -0.852278
v -8.315180 -0.059622 -0.143652
v -10.260662 -0.059623 -0.143652
v -7.430615 -0.652524 -0.652238
v -9.376097 -0.652524 -0.652238
v -7.430616 -0.110166 -0.109880
v -9.376098 -0.110166 -0.109879
v -6.546051 -0.852563 -0.352858
v -8.491532 -0.852564 -0.352859
v -6.546051 -0.143938 -0.059336
v -8.491533 -0.143938 -0.059336
v -5.661487 -0.922808 0.000284
v -7.606968 -0.922808 0.000284
v -5.661488 -0.155797 0.000284
v -7.606970 -0.155797 0.000284
v -4.776923 -0.852563 0.353427
v -6.722404 -0.852563 0.353427
v -4.776924 -0.143938 0.059905
v -6.722404 -0.143938 0.059905
v -3.892352 -0.652524 0.652807
v -5.837841 -0.652524 0.652807
v -3.892353 -0.110166 0.110448
v -5.837842 -0.110166 0.110448
v -3.007796 -0.353144 0.852846
v -4.953276 -0.353144 0.852846
v -3.007797 -0.059622 0.144221
v -4.953278 -0.059622 0.144220
v -2.123233 -0.000002 0.923090
v -4.068714 -0.000002 0.923090
v -2.123233 -0.000002 0.156080
v -4.068714 -0.000002 0.156080
v -1.238670 0.353141 0.852846
v -3.184151 0.353141 0.852846
v -1.238670 0.059619 0.144221
v -3.184151 0.059619 0.144221
v -0.354107 0.652521 0.652807
v -2.299588 0.652521 0.652807
v -0.354106 0.110162 0.110448
v -2.299587 0.110162 0.110448
v 0.530456 0.852560 0.353427
v -1.415025 0.852560 0.353427
v 0.530458 0.143935 0.059905
v -1.415023 0.143935 0.059905
v 1.415020 0.922805 0.000284
v -0.530461 0.922804 0.000284
v 1.415022 0.155794 0.000285
v -0.530459 0.155794 0.000284
v 2.299585 0.852560 -0.352858
v 0.354103 0.852560 -0.352858
v 2.299586 0.143935 -0.059336
v 0.354105 0.143935 -0.059336
v 3.184149 0.652521 -0.652238
v 1.238667 0.652521 -0.652238
v 3.184150 0.110162 -0.109879
v 1.238669 0.110162 -0.109879
v 4.068713 0.353141 -0.852277
v 2.123233 0.353141 -0.852277
v 4.068714 0.059619 -0.143651
v 2.123233 0.059619 -0.143651
v 4.953279 -0.000001 -0.922521
v 3.007797 -0.000002 -0.922521
v 4.953278 -0.000001 -0.155510
v 3.007797 -0.000001 -0.155511
v 5.837842 -0.353144 -0.852276
v 3.892361 -0.353144 -0.852277
v 5.837842 -0.059622 -0.143651
v 3.892360 -0.059622 -0.143651
v 6.722408 -0.652524 -0.652237
v 4.776919 -0.652524 -0.652237
v 6.722405 -0.110165 -0.109879
v 4.776917 -0.110166 -0.109879
v 7.606972 -0.852563 -0.352858
v 5.661490 -0.852563 -0.352858
v 7.606970 -0.143938 -0.059335
v 5.661489 -0.143938 -0.059336
v 8.491535 -0.922807 0.000285
v 6.546054 -0.922807 0.000285
v 8.491532 -0.155797 0.000285
v 6.546053 -0.155797 0.000285
v 9.376100 -0.852563 0.353428
v 7.430619 -0.852563 0.353427
v 9.376098 -0.143937 0.059905
v 7.430617 -0.143938 0.059905
v 10.260663 -0.652523 0.652807
v 8.315182 -0.652523 0.652807
v 10.260662 -0.110165 0.110449
v 8.315181 -0.110165 0.110449
v 11.145226 -0.353143 0.852847
v 9.199746 -0.353144 0.852847
v 11.145226 -0.059621 0.144221
v 9.199744 -0.059622 0.144221
v 12.029790 -0.000000 0.923091
v 10.084301 -0.000000 0.923091
v 12.029790 -0.000001 0.156080
v 10.084301 -0.000001 0.156080
v 12.914351 0.353142 0.852846
v 10.968871 0.353142 0.852846
v 12.914352 0.059619 0.144221
v 10.968872 0.059619 0.144221
v 13.798916 0.652521 0.652807
v 11.853427 0.652521 0.652807
v 13.798917 0.110163 0.110449
v 11.853429 0.110163 0.110449
v 14.683480 0.852561 0.353428
v 12.737998 0.852561 0.353428
v 14.683481 0.143935 0.059905
v 12.737999 0.143935 0.059905
vn -0.2927 -0.2869 -0.9121
vn -0.2477 -0.1690 -0.9540
vn -0.3708 -0.0000 -0.9287
vn -0.2927 -0.6142 -0.7329
vn -0.1591 -0.4554 -0.8759
vn -0.2927 -0.8479 -0.4421
vn -0.1591 -0.7560 -0.6350
vn -0.2142 -0.9768 -0.0000
vn -0.1591 -0.9414 -0.2973
vn -0.2513 -0.8942 0.3704
vn -0.0672 -0.9977 -0.0000
vn -0.2142 -0.6907 0.6907
vn -0.3708 -0.8580 0.3554
vn -0.1591 -0.4554 0.8759
vn -0.0672 -0.7055 0.7055
vn -0.2927 -0.2869 0.9121
vn -0.1591 -0.0856 0.9835
vn -0.2927 0.0840 0.9525
vn -0.1591 0.2973 0.9414
vn -0.2927 0.4421 0.8479
vn -0.1591 0.6350 0.7560
vn -0.2927 0.7329 0.6142
vn -0.1591 0.8759 0.4554
vn -0.2927 0.9121 0.2869
vn -0.2513 0.9679 -0.0000
vn -0.2927 0.9121 -0.2869
vn -0.3708 0.9287 -0.0000
vn -0.2927 0.7329 -0.6142
vn -0.1591 0.8759 -0.4554
vn -0.2927 0.4421 -0.8479
vn -0.1591 0.6350 -0.7560
vn -0.2927 0.0840 -0.9525
vn -0.1591 0.2973 -0.9414
vn -0.1591 -0.0856 -0.9835
vn -0.2142 -0.9024 -0.3738
vn -0.2513 -0.9679 -0.0000
vn -0.0672 -0.9218 -0.3818
vn -0.2142 -0.9024 0.3738
vn -0.3708 -0.9287 -0.0000
vn -0.1591 -0.7560 0.6350
vn -0.0672 -0.9218 0.3818
vn -0.2927 -0.6142 0.7329
vn -0.2513 0.8942 0.3704
vn -0.2927 0.9525 0.0840
vn -0.3708 0.8580 0.3554
vn -0.1591 0.9835 -0.0856
vn -0.2112 0.5221 -0.8263
vn -0.0000 0.9808 -0.1951
vn -0.0000 0.9704 -0.2414
vn -0.0000 0.8569 -0.5155
vn -0.0000 0.8042 -0.5944
vn -0.0000 0.5944 -0.8042
vn -0.0000 0.5155 -0.8569
vn -0.0000 0.2414 -0.9704
vn -0.0000 0.1483 -0.9889
vn -0.0000 -0.1483 -0.9889
vn -0.0000 -0.2414 -0.9704
vn -0.0000 -0.5155 -0.8569
vn -0.0000 -0.5944 -0.8042
vn -0.0000 -0.8042 -0.5944
vn -0.0000 -0.8569 -0.5155
vn -0.0000 -0.9704 -0.2414
vn -0.0000 -0.9889 -0.1483
vn -0.0000 -0.9889 0.1483
vn -0.0000 -0.9704 0.2414
vn -0.0000 -0.8569 0.5155
vn -0.0000 -0.8042 0.5944
vn -0.0000 -0.5944 0.8042
vn -0.0000 -0.5155 0.8569
vn -0.0000 -0.2414 0.9704
vn -0.0000 -0.1483 0.9889
vn -0.0000 0.1483 0.9889
vn -0.0000 0.2414 0.9704
vn -0.0000 0.5155 0.8569
vn -0.0000 0.5944 0.8042
vn -0.0000 0.8042 0.5944
vn -0.0000 0.8569 0.5155
vn -0.0000 0.9704 0.2414
vn -0.0000 0.9889 0.1483
vn -0.0000 0.9889 -0.1483
vn -0.0000 0.8315 0.5556
vn -0.0000 -0.9791 0.2033
vn -0.0000 -0.9808 0.1951
vn -0.0000 -0.8268 0.5625
vn -0.0000 -0.8361 0.5486
vn -0.0000 -0.5486 0.8361
vn -0.0000 -0.5625 0.8268
vn -0.0000 -0.1869 0.9824
vn -0.0000 -0.2033 0.9791
vn -0.0000 0.2033 0.9791
vn -0.0000 0.1869 0.9824
vn -0.0000 0.5625 0.8268
vn -0.0000 0.5486 0.8361
vn -0.0000 0.8361 0.5486
vn -0.0000 0.8268 0.5625
vn -0.0000 0.9824 0.1869
vn -0.0000 0.9791 0.2033
vn -0.0000 0.9791 -0.2033
vn -0.0000 0.9824 -0.1869
vn -0.0000 0.8268 -0.5625
vn -0.0000 0.8361 -0.5486
vn -0.0000 0.5486 -0.8361
vn -0.0000 0.5625 -0.8268
vn -0.0000 0.1869 -0.9824
vn -0.0000 0.2033 -0.9791
vn -0.0000 -0.2033 -0.9791
vn -0.0000 -0.1869 -0.9824
vn -0.0000 -0.5625 -0.8268
vn -0.0000 -0.5486 -0.8361
vn -0.0000 -0.8361 -0.5486
vn -0.0000 -0.8268 -0.5625
vn -0.0000 -0.9824 -0.1869
vn -0.0000 -0.9791 -0.2033
vn -0.0000 -0.9824 0.1869
vn -0.0000 -0.8315 -0.5556
vn 0.2477 0.1690 0.9540
vn 0.2927 0.2869 0.9121
vn 0.3708 -0.0000 0.9287
vn 0.1591 0.4554 0.8759
vn 0.2927 0.6142 0.7329
vn 0.1591 0.7560 0.6350
vn 0.2927 0.8479 0.4421
vn 0.1591 0.9414 0.2973
vn 0.2142 0.9768 -0.0000
vn 0.1591 0.9414 -0.2973
vn 0.0672 0.9977 -0.0000
vn 0.1591 0.7560 -0.6350
vn 0.2927 0.8479 -0.4421
vn 0.1591 0.4554 -0.8759
vn 0.2927 0.6142 -0.7329
vn 0.1591 0.0856 -0.9835
vn 0.2927 0.2869 -0.9121
vn 0.1591 -0.2973 -0.9414
vn 0.2927 -0.0840 -0.9525
vn 0.1591 -0.6350 -0.7560
vn 0.2927 -0.4421 -0.8479
vn 0.1591 -0.8759 -0.4554
vn 0.2927 -0.7329 -0.6142
vn 0.1591 -0.9835 -0.0856
vn 0.2927 -0.9121 -0.2869
vn 0.2513 -0.8942 0.3704
vn 0.2927 -0.9525 0.0840
vn 0.2927 -0.7329 0.6142
vn 0.3708 -0.8580 0.3554
vn 0.1591 -0.6350 0.7560
vn 0.2927 -0.4421 0.8479
vn 0.1591 -0.2973 0.9414
vn 0.2927 -0.0840 0.9525
vn 0.1591 0.0856 0.9835
vn 0.2513 -0.9679 -0.0000
vn 0.2927 -0.9121 0.2869
vn 0.3708 -0.9287 -0.0000
vn 0.1591 -0.8759 0.4554
vn 0.2112 -0.5221 0.8263
vn -0.0000 0.3827 -0.9239
vn -0.0000 -0.0000 1.0000
vn -0.0672 0.3818 -0.9218
vn 0.0672 -0.3818 0.9218
vt 0.437500 0.500000
vt 0.375000 0.250000
vt 0.375000 0.500000
vt 0.500000 0.500000
vt 0.437500 0.250000
vt 0.562500 0.500000
vt 0.500000 0.250000
vt 0.625000 0.500000
vt 0.562500 0.250000
vt 0.687500 0.250000
vt 0.625000 0.250000
vt 0.750000 0.500000
vt 0.687500 0.500000
vt 0.812500 0.250000
vt 0.750000 0.250000
vt 0.812500 0.500000
vt 0.875000 0.250000
vt 0.875000 0.500000
vt 0.937500 0.250000
vt 0.937500 0.500000
vt 1.000000 0.250000
vt 1.000000 0.500000
vt 1.062500 0.250000
vt 1.062500 0.500000
vt 1.125000 0.250000
vt 1.187500 0.500000
vt 1.125000 0.500000
vt 1.250000 0.500000
vt 1.187500 0.250000
vt 1.312500 0.500000
vt 1.250000 0.250000
vt 1.375000 0.500000
vt 1.312500 0.250000
vt 1.437500 0.500000
vt 1.375000 0.250000
vt 1.500000 0.500000
vt 1.437500 0.250000
vt 1.562500 0.500000
vt 1.500000 0.250000
vt 1.625000 0.250000
vt 1.562500 0.250000
vt 1.687500 0.500000
vt 1.625000 0.500000
vt 1.750000 0.250000
vt 1.687500 0.250000
vt 1.750000 0.500000
vt 1.812500 0.250000
vt 1.812500 0.500000
vt 1.875000 0.250000
vt 1.875000 0.500000
vt 1.937500 0.250000
vt 1.937500 0.500000
vt 2.000000 0.250000
vt 2.000000 0.500000
vt 2.062500 0.250000
vt 2.125000 0.500000
vt 2.062500 0.500000
vt 2.187500 0.500000
vt 2.125000 0.250000
vt 2.250000 0.500000
vt 2.187500 0.250000
vt 2.312500 0.500000
vt 2.250000 0.250000
vt 2.375000 0.500000
vt 2.437500 0.500000
vt 2.500000 0.500000
vt 2.312500 0.250000
vt 2.375000 0.250000
vt 2.437500 0.250000
vt 2.500000 0.250000
vt 2.562500 0.500000
vt 2.562500 0.250000
s 1
f 6/1/1 4/2/2 2/3/3
f 10/4/4 8/5/5 6/1/1
f 14/6/6 12/7/7 10/4/4
f 18/8/8 16/9/9 14/6/6
f 18/8/8 24/10/10 20/11/11
f 26/12/12 24/10/10 22/13/13
f 26/12/12 32/14/14 28/15/15
f 30/16/16 36/17/17 32/14/14
f 34/18/18 40/19/19 36/17/17
f 38/20/20 44/21/21 40/19/19
f 42/22/22 48/23/23 44/21/21
f 46/24/24 52/25/25 48/23/23
f 54/26/26 52/25/25 50/27/27
f 58/28/28 56/29/29 54/26/26
f 62/30/30 60/31/31 58/28/28
f 66/32/32 64/33/33 62/30/30
f 70/34/1 68/35/34 66/32/32
f 74/36/4 72/37/5 70/34/1
f 78/38/35 76/39/7 74/36/4
f 78/38/35 84/40/36 80/41/37
f 86/42/38 84/40/36 82/43/39
f 86/42/38 92/44/40 88/45/41
f 90/46/42 96/47/14 92/44/40
f 94/48/16 100/49/17 96/47/14
f 98/50/18 104/51/19 100/49/17
f 102/52/20 108/53/21 104/51/19
f 106/54/22 112/55/43 108/53/21
f 114/56/44 112/55/43 110/57/45
f 118/58/26 116/59/46 114/56/44
f 122/60/28 120/61/29 118/58/26
f 126/62/47 124/63/31 122/60/28
f 1/8/48 6/1/49 2/3/48
f 5/13/50 10/4/51 6/1/49
f 9/12/52 14/6/53 10/4/51
f 13/16/54 18/8/55 14/6/53
f 17/18/56 22/13/57 18/8/55
f 21/20/58 26/12/59 22/13/57
f 25/22/60 30/16/61 26/12/59
f 29/24/62 34/18/63 30/16/61
f 33/27/64 38/20/65 34/18/63
f 37/26/66 42/22/67 38/20/65
f 41/28/68 46/24/69 42/22/67
f 45/30/70 50/27/71 46/24/69
f 49/32/72 54/26/73 50/27/71
f 53/34/74 58/28/75 54/26/73
f 57/36/76 62/30/77 58/28/75
f 61/38/78 66/32/79 62/30/77
f 65/43/80 70/34/49 66/32/79
f 69/42/50 74/36/51 70/34/49
f 73/46/52 78/38/53 74/36/51
f 77/48/54 82/43/55 78/38/53
f 81/50/56 86/42/57 82/43/55
f 85/52/58 90/46/59 86/42/57
f 89/54/60 94/48/61 90/46/59
f 93/57/62 98/50/63 94/48/61
f 97/56/64 102/52/65 98/50/63
f 101/58/66 106/54/67 102/52/65
f 105/60/68 110/57/69 106/54/67
f 109/62/70 114/56/71 110/57/69
f 113/64/72 118/58/73 114/56/71
f 117/65/74 122/60/75 118/58/73
f 121/66/76 126/62/81 122/60/75
f 8/5/82 3/11/83 4/2/83
f 12/7/84 7/10/85 8/5/82
f 16/9/86 11/15/87 12/7/84
f 20/11/88 15/14/89 16/9/86
f 24/10/90 19/17/91 20/11/88
f 28/15/92 23/19/93 24/10/90
f 32/14/94 27/21/95 28/15/92
f 36/17/96 31/23/97 32/14/94
f 40/19/98 35/25/99 36/17/96
f 44/21/100 39/29/101 40/19/98
f 48/23/102 43/31/103 44/21/100
f 52/25/104 47/33/105 48/23/102
f 56/29/106 51/35/107 52/25/104
f 60/31/108 55/37/109 56/29/106
f 64/33/110 59/39/111 60/31/108
f 68/35/112 63/41/113 64/33/110
f 72/37/82 67/40/114 68/35/112
f 76/39/84 71/45/85 72/37/82
f 80/41/86 75/44/87 76/39/84
f 84/40/88 79/47/89 80/41/86
f 88/45/90 83/49/91 84/40/88
f 92/44/92 87/51/93 88/45/90
f 96/47/94 91/53/95 92/44/92
f 100/49/96 95/55/97 96/47/94
f 104/51/98 99/59/99 100/49/96
f 108/53/100 103/61/101 104/51/98
f 112/55/102 107/63/103 108/53/100
f 116/59/104 111/67/105 112/55/102
f 120/61/106 115/68/107 116/59/104
f 124/63/108 119/69/109 120/61/106
f 128/67/115 123/70/111 124/63/108
f 3/11/116 5/13/117 1/8/118
f 7/10/119 9/12/120 5/13/117
f 11/15/121 13/16/122 9/12/120
f 15/14/123 17/18/124 13/16/122
f 23/19/125 17/18/124 19/17/126
f 27/21/127 21/20/128 23/19/125
f 31/23/129 25/22/130 27/21/127
f 35/25/131 29/24/132 31/23/129
f 39/29/133 33/27/134 35/25/131
f 43/31/135 37/26/136 39/29/133
f 47/33/137 41/28/138 43/31/135
f 51/35/139 45/30/140 47/33/137
f 55/37/141 49/32/142 51/35/139
f 55/37/141 57/36/143 53/34/144
f 59/39/145 61/38/146 57/36/143
f 63/41/147 65/43/148 61/38/146
f 67/40/149 69/42/117 65/43/148
f 71/45/119 73/46/120 69/42/117
f 75/44/121 77/48/122 73/46/120
f 79/47/123 81/50/124 77/48/122
f 87/51/125 81/50/124 83/49/126
f 91/53/127 85/52/128 87/51/125
f 95/55/129 89/54/130 91/53/127
f 99/59/131 93/57/132 95/55/129
f 103/61/133 97/56/134 99/59/131
f 107/63/135 101/58/136 103/61/133
f 111/67/137 105/60/138 107/63/135
f 115/68/150 109/62/140 111/67/137
f 115/68/150 117/65/151 113/64/152
f 119/69/153 121/66/143 117/65/151
f 123/70/145 125/71/154 121/66/143
f 125/71/155 128/67/155 126/62/155
f 4/2/156 1/8/156 2/3/156
f 6/1/1 8/5/5 4/2/2
f 10/4/4 12/7/7 8/5/5
f 14/6/6 16/9/9 12/7/7
f 18/8/8 20/11/11 16/9/9
f 18/8/8 22/13/13 24/10/10
f 26/12/12 28/15/15 24/10/10
f 26/12/12 30/16/16 32/14/14
f 30/16/16 34/18/18 36/17/17
f 34/18/18 38/20/20 40/19/19
f 38/20/20 42/22/22 44/21/21
f 42/22/22 46/24/24 48/23/23
f 46/24/24 50/27/27 52/25/25
f 54/26/26 56/29/29 52/25/25
f 58/28/28 60/31/31 56/29/29
f 62/30/30 64/33/33 60/31/31
f 66/32/32 68/35/34 64/33/33
f 70/34/1 72/37/5 68/35/34
f 74/36/4 76/39/7 72/37/5
f 78/38/35 80/41/37 76/39/7
f 78/38/35 82/43/39 84/40/36
f 86/42/38 88/45/41 84/40/36
f 86/42/38 90/46/42 92/44/40
f 90/46/42 94/48/16 96/47/14
f 94/48/16 98/50/18 100/49/17
f 98/50/18 102/52/20 104/51/19
f 102/52/20 106/54/22 108/53/21
f 106/54/22 110/57/45 112/55/43
f 114/56/44 116/59/46 112/55/43
f 118/58/26 120/61/29 116/59/46
f 122/60/28 124/63/31 120/61/29
f 126/62/47 128/67/157 124/63/31
f 1/8/48 5/13/50 6/1/49
f 5/13/50 9/12/52 10/4/51
f 9/12/52 13/16/54 14/6/53
f 13/16/54 17/18/56 18/8/55
f 17/18/56 21/20/58 22/13/57
f 21/20/58 25/22/60 26/12/59
f 25/22/60 29/24/62 30/16/61
f 29/24/62 33/27/64 34/18/63
f 33/27/64 37/26/66 38/20/65
f 37/26/66 41/28/68 42/22/67
f 41/28/68 45/30/70 46/24/69
f 45/30/70 49/32/72 50/27/71
f 49/32/72 53/34/74 54/26/73
f 53/34/74 57/36/76 58/28/75
f 57/36/76 61/38/78 62/30/77
f 61/38/78 65/43/80 66/32/79
f 65/43/80 69/42/50 70/34/49
f 69/42/50 73/46/52 74/36/51
f 73/46/52 77/48/54 78/38/53
f 77/48/54 81/50/56 82/43/55
f 81/50/56 85/52/58 86/42/57
f 85/52/58 89/54/60 90/46/59
f 89/54/60 93/57/62 94/48/61
f 93/57/62 97/56/64 98/50/63
f 97/56/64 101/58/66 102/52/65
f 101/58/66 105/60/68 106/54/67
f 105/60/68 109/62/70 110/57/69
f 109/62/70 113/64/72 114/56/71
f 113/64/72 117/65/74 118/58/73
f 117/65/74 121/66/76 122/60/75
f 121/66/76 125/71/81 126/62/81
f 8/5/82 7/10/85 3/11/83
f 12/7/84 11/15/87 7/10/85
f 16/9/86 15/14/89 11/15/87
f 20/11/88 19/17/91 15/14/89
f 24/10/90 23/19/93 19/17/91
f 28/15/92 27/21/95 23/19/93
f 32/14/94 31/23/97 27/21/95
f 36/17/96 35/25/99 31/23/97
f 40/19/98 39/29/101 35/25/99
f 44/21/100 43/31/103 39/29/101
f 48/23/102 47/33/105 43/31/103
f 52/25/104 51/35/107 47/33/105
f 56/29/106 55/37/109 51/35/107
f 60/31/108 59/39/111 55/37/109
f 64/33/110 63/41/113 59/39/111
f 68/35/112 67/40/114 63/41/113
f 72/37/82 71/45/85 67/40/114
f 76/39/84 75/44/87 71/45/85
f 80/41/86 79/47/89 75/44/87
f 84/40/88 83/49/91 79/47/89
f 88/45/90 87/51/93 83/49/91
f 92/44/92 91/53/95 87/51/93
f 96/47/94 95/55/97 91/53/95
f 100/49/96 99/59/99 95/55/97
f 104/51/98 103/61/101 99/59/99
f 108/53/100 107/63/103 103/61/101
f 112/55/102 111/67/105 107/63/103
f 116/59/104 115/68/107 111/67/105
f 120/61/106 119/69/109 115/68/107
f 124/63/108 123/70/111 119/69/109
f 128/67/115 127/72/115 123/70/111
f 3/11/116 7/10/119 5/13/117
f 7/10/119 11/15/121 9/12/120
f 11/15/121 15/14/123 13/16/122
f 15/14/123 19/17/126 17/18/124
f 23/19/125 21/20/128 17/18/124
f 27/21/127 25/22/130 21/20/128
f 31/23/129 29/24/132 25/22/130
f 35/25/131 33/27/134 29/24/132
f 39/29/133 37/26/136 33/27/134
f 43/31/135 41/28/138 37/26/136
f 47/33/137 45/30/140 41/28/138
f 51/35/139 49/32/142 45/30/140
f 55/37/141 53/34/144 49/32/142
f 55/37/141 59/39/145 57/36/143
f 59/39/145 63/41/147 61/38/146
f 63/41/147 67/40/149 65/43/148
f 67/40/149 71/45/119 69/42/117
f 71/45/119 75/44/121 73/46/120
f 75/44/121 79/47/123 77/48/122
f 79/47/123 83/49/126 81/50/124
f 87/51/125 85/52/128 81/50/124
f 91/53/127 89/54/130 85/52/128
f 95/55/129 93/57/132 89/54/130
f 99/59/131 97/56/134 93/57/132
f 103/61/133 101/58/136 97/56/134
f 107/63/135 105/60/138 101/58/136
f 111/67/137 109/62/140 105/60/138
f 115/68/150 113/64/152 109/62/140
f 115/68/150 119/69/153 117/65/151
f 119/69/153 123/70/145 121/66/143
f 123/70/145 127/72/158 125/71/154
f 125/71/155 127/72/155 128/67/155
f 4/2/156 3/11/156 1/8/156
