# Blender 4.1.1
# www.blender.org
mtllib fan.mtl
o Cube
v -12.737997 -0.922522 0.000000
v -14.683482 -0.922522 0.000000
v -12.737996 -0.155511 0.000000
v -14.683480 -0.155511 0.000000
v -11.853433 -0.852278 0.353143
v -13.798917 -0.852278 0.353143
v -11.853433 -0.143652 0.059620
v -13.798917 -0.143652 0.059620
v -10.968869 -0.652238 0.652522
v -12.914355 -0.652238 0.652522
v -10.968869 -0.109880 0.110164
v -12.914351 -0.109880 0.110164
v -10.084307 -0.352859 0.852562
v -12.029789 -0.352859 0.852562
v -10.084306 -0.059336 0.143936
v -12.029789 -0.059336 0.143936
v -9.199742 0.000284 0.922806
v -11.145224 0.000284 0.922806
v -9.199742 0.000284 0.155796
v -11.145224 0.000284 0.155796
v -8.315177 0.353427 0.852562
v -10.260659 0.353427 0.852562
v -8.315178 0.059904 0.143936
v -10.260660 0.059904 0.143936
v -7.430614 0.652806 0.652522
v -9.376095 0.652806 0.652522
v -7.430615 0.110448 0.110164
v -9.376096 0.110448 0.110164
v -6.546050 0.852846 0.353143
v -8.491530 0.852846 0.353143
v -6.546050 0.144220 0.059620
v -8.491531 0.144220 0.059620
v -5.661486 0.923090 0.000000
v -7.606967 0.923090 0.000000
v -5.661487 0.156079 0.000000
v -7.606969 0.156079 0.000000
v -4.776922 0.852846 -0.353142
v -6.722404 0.852846 -0.353142
v -4.776923 0.144220 -0.059620
v -6.722404 0.144220 -0.059620
v -3.892351 0.652806 -0.652522
v -5.837840 0.652806 -0.652522
v -3.892353 0.110448 -0.110164
v -5.837841 0.110448 -0.110164
v -3.007795 0.353426 -0.852561
v -4.953276 0.353426 -0.852561
v -3.007796 0.059904 -0.143936
v -4.953277 0.059904 -0.143936
v -2.123232 0.000284 -0.922806
v -4.068713 0.000284 -0.922806
v -2.123232 0.000284 -0.155795
v -4.068713 0.000284 -0.155795
v -1.238668 -0.352859 -0.852561
v -3.184150 -0.352859 -0.852561
v -1.238668 -0.059336 -0.143936
v -3.184150 -0.059336 -0.143936
v -0.354106 -0.652239 -0.652522
v -2.299587 -0.652239 -0.652522
v -0.354105 -0.109880 -0.110164
v -2.299586 -0.109880 -0.110164
v 0.530458 -0.852278 -0.353142
v -1.415024 -0.852278 -0.353142
v 0.530459 -0.143652 -0.059620
v -1.415022 -0.143652 -0.059620
v 1.415021 -0.922522 0.000000
v -0.530460 -0.922522 0.000000
v 1.415023 -0.155511 0.000000
v -0.530458 -0.155511 0.000000
v 2.299586 -0.852278 0.353143
v 0.354104 -0.852278 0.353143
v 2.299587 -0.143652 0.059621
v 0.354106 -0.143652 0.059621
v 3.184150 -0.652238 0.652522
v 1.238668 -0.652238 0.652522
v 3.184151 -0.109880 0.110164
v 1.238670 -0.109880 0.110164
v 4.068714 -0.352858 0.852562
v 2.123234 -0.352859 0.852562
v 4.068715 -0.059336 0.143936
v 2.123234 -0.059336 0.143936
v 4.953279 0.000284 0.922806
v 3.007798 0.000284 0.922806
v 4.953279 0.000284 0.155796
v 3.007798 0.000284 0.155796
v 5.837843 0.353427 0.852561
v 3.892362 0.353427 0.852561
v 5.837842 0.059904 0.143936
v 3.892361 0.059904 0.143936
v 6.722409 0.652807 0.652522
v 4.776920 0.652807 0.652522
v 6.722406 0.110448 0.110164
v 4.776917 0.110448 0.110164
v 7.606973 0.852846 0.353143
v 5.661491 0.852846 0.353143
v 7.606971 0.144220 0.059620
v 5.661490 0.144220 0.059620
v 8.491537 0.923090 0.000000
v 6.546055 0.923090 0.000000
v 8.491534 0.156079 0.000000
v 6.546054 0.156079 0.000000
v 9.376101 0.852845 -0.353143
v 7.430619 0.852845 -0.353143
v 9.376100 0.144220 -0.059620
v 7.430618 0.144220 -0.059620
v 10.260665 0.652806 -0.652522
v 8.315184 0.652806 -0.652522
v 10.260664 0.110448 -0.110164
v 8.315183 0.110448 -0.110164
v 11.145228 0.353426 -0.852562
v 9.199748 0.353426 -0.852562
v 11.145227 0.059904 -0.143936
v 9.199746 0.059904 -0.143936
v 12.029792 0.000283 -0.922806
v 10.084303 0.000283 -0.922806
v 12.029792 0.000284 -0.155795
v 10.084303 0.000284 -0.155795
v 12.914353 -0.352858 -0.852561
v 10.968873 -0.352858 -0.852561
v 12.914354 -0.059336 -0.143936
v 10.968874 -0.059336 -0.143936
v 13.798918 -0.652238 -0.652522
v 11.853429 -0.652238 -0.652522
v 13.798919 -0.109880 -0.110164
v 11.853431 -0.109880 -0.110164
v 14.683482 -0.852278 -0.353142
v 12.738000 -0.852278 -0.353142
v 14.683483 -0.143652 -0.059620
v 12.738001 -0.143652 -0.059620
vn -0.2927 0.2869 0.9121
vn -0.2477 0.1690 0.9540
vn -0.3708 -0.0000 0.9287
vn -0.2927 0.6142 0.7329
vn -0.1591 0.4554 0.8759
vn -0.2927 0.8479 0.4421
vn -0.1591 0.7560 0.6350
vn -0.2142 0.9768 -0.0000
vn -0.1591 0.9414 0.2973
vn -0.1591 0.9414 -0.2973
vn -0.0672 0.9977 -0.0000
vn -0.2927 0.8479 -0.4421
vn -0.1591 0.7560 -0.6350
vn -0.2927 0.6142 -0.7329
vn -0.1591 0.4554 -0.8759
vn -0.2927 0.2869 -0.9121
vn -0.1591 0.0856 -0.9835
vn -0.2927 -0.0840 -0.9525
vn -0.1591 -0.2973 -0.9414
vn -0.2927 -0.4421 -0.8479
vn -0.1591 -0.6350 -0.7560
vn -0.2927 -0.7329 -0.6142
vn -0.1591 -0.8759 -0.4554
vn -0.2927 -0.9121 -0.2869
vn -0.2513 -0.9679 -0.0000
vn -0.2927 -0.9121 0.2869
vn -0.3708 -0.9287 -0.0000
vn -0.2927 -0.7329 0.6142
vn -0.1591 -0.8759 0.4554
vn -0.2927 -0.4421 0.8479
vn -0.1591 -0.6350 0.7560
vn -0.2927 -0.0840 0.9525
vn -0.1591 -0.2973 0.9414
vn -0.1591 0.0856 0.9835
vn -0.2112 -0.5221 0.8263
vn -0.0000 -0.9808 0.1951
vn -0.0000 -0.9704 0.2414
vn -0.0000 -0.8569 0.5155
vn -0.0000 -0.8042 0.5944
vn -0.0000 -0.5944 0.8042
vn -0.0000 -0.5155 0.8569
vn -0.0000 -0.2414 0.9704
vn -0.0000 -0.1483 0.9889
vn -0.0000 0.1483 0.9889
vn -0.0000 0.2414 0.9704
vn -0.0000 0.5155 0.8569
vn -0.0000 0.5944 0.8042
vn -0.0000 0.8042 0.5944
vn -0.0000 0.8569 0.5155
vn -0.0000 0.9704 0.2414
vn -0.0000 0.9889 0.1483
vn -0.0000 0.9889 -0.1483
vn -0.0000 0.9704 -0.2414
vn -0.0000 0.8569 -0.5155
vn -0.0000 0.8042 -0.5944
vn -0.0000 0.5944 -0.8042
vn -0.0000 0.5155 -0.8569
vn -0.0000 0.2414 -0.9704
vn -0.0000 0.1483 -0.9889
vn -0.0000 -0.1483 -0.9889
vn -0.0000 -0.2414 -0.9704
vn -0.0000 -0.5155 -0.8569
vn -0.0000 -0.5944 -0.8042
vn -0.0000 -0.8042 -0.5944
vn -0.0000 -0.8569 -0.5155
vn -0.0000 -0.9704 -0.2414
vn -0.0000 -0.9889 -0.1483
vn -0.0000 -0.9889 0.1483
vn -0.0000 -0.8315 -0.5556
vn -0.0000 0.9791 -0.2033
vn -0.0000 0.9808 -0.1951
vn -0.0000 0.8268 -0.5625
vn -0.0000 0.8361 -0.5486
vn -0.0000 0.5486 -0.8361
vn -0.0000 0.5625 -0.8268
vn -0.0000 0.1869 -0.9824
vn -0.0000 0.2033 -0.9791
vn -0.0000 -0.2033 -0.9791
vn -0.0000 -0.1869 -0.9824
vn -0.0000 -0.5625 -0.8268
vn -0.0000 -0.5486 -0.8361
vn -0.0000 -0.8361 -0.5486
vn -0.0000 -0.8268 -0.5625
vn -0.0000 -0.9824 -0.1869
vn -0.0000 -0.9791 -0.2033
vn -0.0000 -0.9791 0.2033
vn -0.0000 -0.9824 0.1869
vn -0.0000 -0.8268 0.5625
vn -0.0000 -0.8361 0.5486
vn -0.0000 -0.5486 0.8361
vn -0.0000 -0.5625 0.8268
vn -0.0000 -0.1869 0.9824
vn -0.0000 -0.2033 0.9791
vn -0.0000 0.2033 0.9791
vn -0.0000 0.1869 0.9824
vn -0.0000 0.5625 0.8268
vn -0.0000 0.5486 0.8361
vn -0.0000 0.8361 0.5486
vn -0.0000 0.8268 0.5625
vn -0.0000 0.9824 0.1869
vn -0.0000 0.9791 0.2033
vn -0.0000 0.9824 -0.1869
vn -0.0000 0.8315 0.5556
vn 0.2477 -0.1690 -0.9540
vn 0.2142 -0.3738 -0.9024
vn 0.3708 -0.0000 -0.9287
vn 0.2513 -0.6844 -0.6844
vn 0.0672 -0.3818 -0.9218
vn 0.2927 -0.8479 -0.4421
vn 0.3708 -0.6567 -0.6567
vn 0.1591 -0.9414 -0.2973
vn 0.2142 -0.9768 -0.0000
vn 0.1591 -0.9414 0.2973
vn 0.0672 -0.9977 -0.0000
vn 0.1591 -0.7560 0.6350
vn 0.2927 -0.8479 0.4421
vn 0.1591 -0.4554 0.8759
vn 0.2927 -0.6142 0.7329
vn 0.1591 -0.0856 0.9835
vn 0.2927 -0.2869 0.9121
vn 0.1591 0.2973 0.9414
vn 0.2927 0.0840 0.9525
vn 0.1591 0.6350 0.7560
vn 0.2927 0.4421 0.8479
vn 0.1591 0.8759 0.4554
vn 0.2927 0.7329 0.6142
vn 0.1591 0.9835 0.0856
vn 0.2927 0.9121 0.2869
vn 0.2513 0.8942 -0.3704
vn 0.2927 0.9525 -0.0840
vn 0.2927 0.7329 -0.6142
vn 0.3708 0.8580 -0.3554
vn 0.1591 0.6350 -0.7560
vn 0.2927 0.4421 -0.8479
vn 0.1591 0.2973 -0.9414
vn 0.2927 0.0840 -0.9525
vn 0.1591 -0.0856 -0.9835
vn 0.2927 -0.2869 -0.9121
vn 0.1591 -0.4554 -0.8759
vn 0.2927 -0.6142 -0.7329
vn 0.1591 -0.7560 -0.6350
vn 0.2112 0.5221 -0.8263
vn -0.0000 -0.3827 0.9239
vn -0.0000 -0.0000 -1.0000
vn -0.0672 -0.3818 0.9218
vn 0.0672 0.3818 -0.9218
vt 0.437500 0.500000
vt 0.375000 0.250000
vt 0.375000 0.500000
vt 0.500000 0.500000
vt 0.437500 0.250000
vt 0.562500 0.500000
vt 0.500000 0.250000
vt 0.625000 0.500000
vt 0.562500 0.250000
vt 0.687500 0.250000
vt 0.625000 0.250000
vt 0.687500 0.500000
vt 0.750000 0.250000
vt 0.750000 0.500000
vt 0.812500 0.250000
vt 0.812500 0.500000
vt 0.875000 0.250000
vt 0.875000 0.500000
vt 0.937500 0.250000
vt 0.937500 0.500000
vt 1.000000 0.250000
vt 1.000000 0.500000
vt 1.062500 0.250000
vt 1.062500 0.500000
vt 1.125000 0.250000
vt 1.187500 0.500000
vt 1.125000 0.500000
vt 1.250000 0.500000
vt 1.187500 0.250000
vt 1.312500 0.500000
vt 1.250000 0.250000
vt 1.375000 0.500000
vt 1.312500 0.250000
vt 1.437500 0.500000
vt 1.375000 0.250000
vt 1.500000 0.500000
vt 1.437500 0.250000
vt 1.562500 0.500000
vt 1.500000 0.250000
vt 1.625000 0.500000
vt 1.562500 0.250000
vt 1.687500 0.250000
vt 1.625000 0.250000
vt 1.687500 0.500000
vt 1.750000 0.250000
vt 1.750000 0.500000
vt 1.812500 0.250000
vt 1.812500 0.500000
vt 1.875000 0.250000
vt 1.875000 0.500000
vt 1.937500 0.250000
vt 1.937500 0.500000
vt 2.000000 0.250000
vt 2.000000 0.500000
vt 2.062500 0.250000
vt 2.062500 0.500000
vt 2.125000 0.250000
vt 2.187500 0.500000
vt 2.125000 0.500000
vt 2.250000 0.500000
vt 2.187500 0.250000
vt 2.312500 0.500000
vt 2.250000 0.250000
vt 2.375000 0.500000
vt 2.437500 0.500000
vt 2.500000 0.500000
vt 2.312500 0.250000
vt 2.375000 0.250000
vt 2.437500 0.250000
vt 2.500000 0.250000
vt 2.562500 0.500000
vt 2.562500 0.250000
s 1
usemtl Material
f 6/1/1 4/2/2 2/3/3
f 10/4/4 8/5/5 6/1/1
f 14/6/6 12/7/7 10/4/4
f 18/8/8 16/9/9 14/6/6
f 18/8/8 24/10/10 20/11/11
f 22/12/12 28/13/13 24/10/10
f 26/14/14 32/15/15 28/13/13
f 30/16/16 36/17/17 32/15/15
f 34/18/18 40/19/19 36/17/17
f 38/20/20 44/21/21 40/19/19
f 42/22/22 48/23/23 44/21/21
f 46/24/24 52/25/25 48/23/23
f 54/26/26 52/25/25 50/27/27
f 58/28/28 56/29/29 54/26/26
f 62/30/30 60/31/31 58/28/28
f 66/32/32 64/33/33 62/30/30
f 70/34/1 68/35/34 66/32/32
f 74/36/4 72/37/5 70/34/1
f 78/38/6 76/39/7 74/36/4
f 82/40/8 80/41/9 78/38/6
f 82/40/8 88/42/10 84/43/11
f 86/44/12 92/45/13 88/42/10
f 90/46/14 96/47/15 92/45/13
f 94/48/16 100/49/17 96/47/15
f 98/50/18 104/51/19 100/49/17
f 102/52/20 108/53/21 104/51/19
f 106/54/22 112/55/23 108/53/21
f 110/56/24 116/57/25 112/55/23
f 118/58/26 116/57/25 114/59/27
f 122/60/28 120/61/29 118/58/26
f 126/62/35 124/63/31 122/60/28
f 1/8/36 6/1/37 2/3/36
f 5/12/38 10/4/39 6/1/37
f 9/14/40 14/6/41 10/4/39
f 13/16/42 18/8/43 14/6/41
f 17/18/44 22/12/45 18/8/43
f 21/20/46 26/14/47 22/12/45
f 25/22/48 30/16/49 26/14/47
f 29/24/50 34/18/51 30/16/49
f 33/27/52 38/20/53 34/18/51
f 37/26/54 42/22/55 38/20/53
f 41/28/56 46/24/57 42/22/55
f 45/30/58 50/27/59 46/24/57
f 49/32/60 54/26/61 50/27/59
f 53/34/62 58/28/63 54/26/61
f 57/36/64 62/30/65 58/28/63
f 61/38/66 66/32/67 62/30/65
f 65/40/68 70/34/37 66/32/67
f 69/44/38 74/36/39 70/34/37
f 73/46/40 78/38/41 74/36/39
f 77/48/42 82/40/43 78/38/41
f 81/50/44 86/44/45 82/40/43
f 85/52/46 90/46/47 86/44/45
f 89/54/48 94/48/49 90/46/47
f 93/56/50 98/50/51 94/48/49
f 97/59/52 102/52/53 98/50/51
f 101/58/54 106/54/55 102/52/53
f 105/60/56 110/56/57 106/54/55
f 109/62/58 114/59/59 110/56/57
f 113/64/60 118/58/61 114/59/59
f 117/65/62 122/60/63 118/58/61
f 121/66/64 126/62/69 122/60/63
f 8/5/70 3/11/71 4/2/71
f 12/7/72 7/10/73 8/5/70
f 16/9/74 11/13/75 12/7/72
f 20/11/76 15/15/77 16/9/74
f 24/10/78 19/17/79 20/11/76
f 28/13/80 23/19/81 24/10/78
f 32/15/82 27/21/83 28/13/80
f 36/17/84 31/23/85 32/15/82
f 40/19/86 35/25/87 36/17/84
f 44/21/88 39/29/89 40/19/86
f 48/23/90 43/31/91 44/21/88
f 52/25/92 47/33/93 48/23/90
f 56/29/94 51/35/95 52/25/92
f 60/31/96 55/37/97 56/29/94
f 64/33/98 59/39/99 60/31/96
f 68/35/100 63/41/101 64/33/98
f 72/37/70 67/43/102 68/35/100
f 76/39/72 71/42/73 72/37/70
f 80/41/74 75/45/75 76/39/72
f 84/43/76 79/47/77 80/41/74
f 88/42/78 83/49/79 84/43/76
f 92/45/80 87/51/81 88/42/78
f 96/47/82 91/53/83 92/45/80
f 100/49/84 95/55/85 96/47/82
f 104/51/86 99/57/87 100/49/84
f 108/53/88 103/61/89 104/51/86
f 112/55/90 107/63/91 108/53/88
f 116/57/92 111/67/93 112/55/90
f 120/61/94 115/68/95 116/57/92
f 124/63/96 119/69/97 120/61/94
f 128/67/103 123/70/99 124/63/96
f 3/11/104 5/12/105 1/8/106
f 11/13/107 5/12/105 7/10/108
f 11/13/107 13/16/109 9/14/110
f 15/15/111 17/18/112 13/16/109
f 23/19/113 17/18/112 19/17/114
f 27/21/115 21/20/116 23/19/113
f 31/23/117 25/22/118 27/21/115
f 35/25/119 29/24/120 31/23/117
f 39/29/121 33/27/122 35/25/119
f 43/31/123 37/26/124 39/29/121
f 47/33/125 41/28/126 43/31/123
f 51/35/127 45/30/128 47/33/125
f 55/37/129 49/32/130 51/35/127
f 55/37/129 57/36/131 53/34/132
f 59/39/133 61/38/134 57/36/131
f 63/41/135 65/40/136 61/38/134
f 67/43/137 69/44/138 65/40/136
f 71/42/139 73/46/140 69/44/138
f 75/45/141 77/48/109 73/46/140
f 79/47/111 81/50/112 77/48/109
f 87/51/113 81/50/112 83/49/114
f 91/53/115 85/52/116 87/51/113
f 95/55/117 89/54/118 91/53/115
f 99/57/119 93/56/120 95/55/117
f 103/61/121 97/59/122 99/57/119
f 107/63/123 101/58/124 103/61/121
f 111/67/125 105/60/126 107/63/123
f 115/68/127 109/62/128 111/67/125
f 119/69/129 113/64/130 115/68/127
f 119/69/129 121/66/131 117/65/132
f 123/70/133 125/71/142 121/66/131
f 125/71/143 128/67/143 126/62/143
f 4/2/144 1/8/144 2/3/144
f 6/1/1 8/5/5 4/2/2
f 10/4/4 12/7/7 8/5/5
f 14/6/6 16/9/9 12/7/7
f 18/8/8 20/11/11 16/9/9
f 18/8/8 22/12/12 24/10/10
f 22/12/12 26/14/14 28/13/13
f 26/14/14 30/16/16 32/15/15
f 30/16/16 34/18/18 36/17/17
f 34/18/18 38/20/20 40/19/19
f 38/20/20 42/22/22 44/21/21
f 42/22/22 46/24/24 48/23/23
f 46/24/24 50/27/27 52/25/25
f 54/26/26 56/29/29 52/25/25
f 58/28/28 60/31/31 56/29/29
f 62/30/30 64/33/33 60/31/31
f 66/32/32 68/35/34 64/33/33
f 70/34/1 72/37/5 68/35/34
f 74/36/4 76/39/7 72/37/5
f 78/38/6 80/41/9 76/39/7
f 82/40/8 84/43/11 80/41/9
f 82/40/8 86/44/12 88/42/10
f 86/44/12 90/46/14 92/45/13
f 90/46/14 94/48/16 96/47/15
f 94/48/16 98/50/18 100/49/17
f 98/50/18 102/52/20 104/51/19
f 102/52/20 106/54/22 108/53/21
f 106/54/22 110/56/24 112/55/23
f 110/56/24 114/59/27 116/57/25
f 118/58/26 120/61/29 116/57/25
f 122/60/28 124/63/31 120/61/29
f 126/62/35 128/67/145 124/63/31
f 1/8/36 5/12/38 6/1/37
f 5/12/38 9/14/40 10/4/39
f 9/14/40 13/16/42 14/6/41
f 13/16/42 17/18/44 18/8/43
f 17/18/44 21/20/46 22/12/45
f 21/20/46 25/22/48 26/14/47
f 25/22/48 29/24/50 30/16/49
f 29/24/50 33/27/52 34/18/51
f 33/27/52 37/26/54 38/20/53
f 37/26/54 41/28/56 42/22/55
f 41/28/56 45/30/58 46/24/57
f 45/30/58 49/32/60 50/27/59
f 49/32/60 53/34/62 54/26/61
f 53/34/62 57/36/64 58/28/63
f 57/36/64 61/38/66 62/30/65
f 61/38/66 65/40/68 66/32/67
f 65/40/68 69/44/38 70/34/37
f 69/44/38 73/46/40 74/36/39
f 73/46/40 77/48/42 78/38/41
f 77/48/42 81/50/44 82/40/43
f 81/50/44 85/52/46 86/44/45
f 85/52/46 89/54/48 90/46/47
f 89/54/48 93/56/50 94/48/49
f 93/56/50 97/59/52 98/50/51
f 97/59/52 101/58/54 102/52/53
f 101/58/54 105/60/56 106/54/55
f 105/60/56 109/62/58 110/56/57
f 109/62/58 113/64/60 114/59/59
f 113/64/60 117/65/62 118/58/61
f 117/65/62 121/66/64 122/60/63
f 121/66/64 125/71/69 126/62/69
f 8/5/70 7/10/73 3/11/71
f 12/7/72 11/13/75 7/10/73
f 16/9/74 15/15/77 11/13/75
f 20/11/76 19/17/79 15/15/77
f 24/10/78 23/19/81 19/17/79
f 28/13/80 27/21/83 23/19/81
f 32/15/82 31/23/85 27/21/83
f 36/17/84 35/25/87 31/23/85
f 40/19/86 39/29/89 35/25/87
f 44/21/88 43/31/91 39/29/89
f 48/23/90 47/33/93 43/31/91
f 52/25/92 51/35/95 47/33/93
f 56/29/94 55/37/97 51/35/95
f 60/31/96 59/39/99 55/37/97
f 64/33/98 63/41/101 59/39/99
f 68/35/100 67/43/102 63/41/101
f 72/37/70 71/42/73 67/43/102
f 76/39/72 75/45/75 71/42/73
f 80/41/74 79/47/77 75/45/75
f 84/43/76 83/49/79 79/47/77
f 88/42/78 87/51/81 83/49/79
f 92/45/80 91/53/83 87/51/81
f 96/47/82 95/55/85 91/53/83
f 100/49/84 99/57/87 95/55/85
f 104/51/86 103/61/89 99/57/87
f 108/53/88 107/63/91 103/61/89
f 112/55/90 111/67/93 107/63/91
f 116/57/92 115/68/95 111/67/93
f 120/61/94 119/69/97 115/68/95
f 124/63/96 123/70/99 119/69/97
f 128/67/103 127/72/103 123/70/99
f 3/11/104 7/10/108 5/12/105
f 11/13/107 9/14/110 5/12/105
f 11/13/107 15/15/111 13/16/109
f 15/15/111 19/17/114 17/18/112
f 23/19/113 21/20/116 17/18/112
f 27/21/115 25/22/118 21/20/116
f 31/23/117 29/24/120 25/22/118
f 35/25/119 33/27/122 29/24/120
f 39/29/121 37/26/124 33/27/122
f 43/31/123 41/28/126 37/26/124
f 47/33/125 45/30/128 41/28/126
f 51/35/127 49/32/130 45/30/128
f 55/37/129 53/34/132 49/32/130
f 55/37/129 59/39/133 57/36/131
f 59/39/133 63/41/135 61/38/134
f 63/41/135 67/43/137 65/40/136
f 67/43/137 71/42/139 69/44/138
f 71/42/139 75/45/141 73/46/140
f 75/45/141 79/47/111 77/48/109
f 79/47/111 83/49/114 81/50/112
f 87/51/113 85/52/116 81/50/112
f 91/53/115 89/54/118 85/52/116
f 95/55/117 93/56/120 89/54/118
f 99/57/119 97/59/122 93/56/120
f 103/61/121 101/58/124 97/59/122
f 107/63/123 105/60/126 101/58/124
f 111/67/125 109/62/128 105/60/126
f 115/68/127 113/64/130 109/62/128
f 119/69/129 117/65/132 113/64/130
f 119/69/129 123/70/133 121/66/131
f 123/70/133 127/72/146 125/71/142
f 125/71/143 127/72/143 128/67/143
f 4/2/144 3/11/144 1/8/144
