{
	"asset":{
		"generator":"Khronos glTF Blender I/O v4.2.80",
		"version":"2.0"
	},
	"scene":0,
	"scenes":[
		{
			"extras":{
				"ConvDecompProperties":{
					"solver":2,
					"transparency":10
				},
				"ConvDecompPropertiesVHACD":{},
				"ConvDecompPropertiesCoACD":{
					"i_mcts_depth":7
				}
			},
			"name":"Scene",
			"nodes":[
				0,
				1,
				2,
				3,
				4,
				5,
				6,
				7,
				8,
				9,
				10,
				11,
				12,
				13,
				14,
				15,
				16,
				17
			]
		}
	],
	"nodes":[
		{
			"name":"Scene Collection"
		},
		{
			"name":"Collection"
		},
		{
			"extras":{
				"entity":"player"
			},
			"mesh":0,
			"name":"player",
			"translation":[
				-5.587873935699463,
				0.38209325075149536,
				0.7561413049697876
			]
		},
		{
			"extras":{
				"entity":"box_floor"
			},
			"mesh":1,
			"name":"Cube.002",
			"translation":[
				1.4809321165084839,
				27.3029727935791,
				-42.60429382324219
			]
		},
		{
			"extras":{
				"entity":"moving_platform",
				"target":{
					"name":"platform_target",
					"type":"Object"
				}
			},
			"mesh":2,
			"name":"platform",
			"rotation":[
				0,
				0,
				-0.7372773289680481,
				0.6755902171134949
			],
			"translation":[
				-573.2257080078125,
				13.436111450195312,
				-35
			]
		},
		{
			"mesh":3,
			"name":"platform_target",
			"rotation":[
				0,
				0,
				-0.7372773289680481,
				0.6755902171134949
			],
			"translation":[
				-553.61181640625,
				237.62400817871094,
				-35
			]
		},
		{
			"extras":{
				"entity":"rotating_platform",
				"target":{
					"name":"platform_target.001",
					"type":"Object"
				}
			},
			"mesh":4,
			"name":"platform.001",
			"translation":[
				-107.01705932617188,
				-35.20314025878906,
				-36.570281982421875
			]
		},
		{
			"mesh":5,
			"name":"platform_target.001",
			"translation":[
				-102.46880340576172,
				-33.253639221191406,
				25.966567993164062
			]
		},
		{
			"extras":{
				"entity":"rotating_platform",
				"target":{
					"name":"platform_target.002",
					"type":"Object"
				}
			},
			"mesh":6,
			"name":"platform.002",
			"translation":[
				-255.70870971679688,
				-35.20314025878906,
				-36.570281982421875
			]
		},
		{
			"mesh":7,
			"name":"platform_target.002",
			"translation":[
				-251.16046142578125,
				-33.253639221191406,
				68.474853515625
			]
		},
		{
			"extras":{
				"entity":"rotating_platform",
				"target":{
					"name":"platform_target.003",
					"type":"Object"
				}
			},
			"mesh":8,
			"name":"platform.003",
			"translation":[
				-442.72607421875,
				-35.20314025878906,
				-36.570281982421875
			]
		},
		{
			"mesh":9,
			"name":"platform_target.003",
			"translation":[
				-438.1778564453125,
				-33.253639221191406,
				102.85562133789062
			]
		},
		{
			"extras":{
				"entity":"box_floor"
			},
			"mesh":10,
			"name":"Cube.001",
			"translation":[
				-551.1895751953125,
				277.5564880371094,
				-42.60429382324219
			]
		},
		{
			"extras":{
				"entity":"finish"
			},
			"mesh":11,
			"name":"Cube.003",
			"translation":[
				-551.1895751953125,
				308.6658020019531,
				-29.375957489013672
			]
		},
		{
			"extras":{
				"entity":"powerup",
				"type":"jump"
			},
			"mesh":12,
			"name":"Icosphere",
			"translation":[
				-108.53147888183594,
				-33.23838424682617,
				-29.81742286682129
			]
		},
		{
			"extras":{
				"entity":"rotating_platform",
				"target":{
					"name":"platform_target.004",
					"type":"Object"
				}
			},
			"mesh":13,
			"name":"platform.004",
			"translation":[
				-107.01705932617188,
				75.24351501464844,
				-36.570281982421875
			]
		},
		{
			"mesh":14,
			"name":"platform_target.004",
			"translation":[
				-102.46880340576172,
				-362.4635925292969,
				-35.96084213256836
			]
		},
		{
			"extras":{
				"entity":"level",
				"game_mode":"time"
			},
			"mesh":15,
			"name":"level"
		}
	],
	"materials":[
		{
			"doubleSided":true,
			"name":"Material",
			"pbrMetallicRoughness":{
				"baseColorFactor":[
					0.800000011920929,
					0.800000011920929,
					0.800000011920929,
					1
				],
				"metallicFactor":0,
				"roughnessFactor":0.5
			}
		},
		{
			"doubleSided":true,
			"name":"Material.002",
			"pbrMetallicRoughness":{
				"baseColorFactor":[
					0.8002194166183472,
					0.2864639163017273,
					0,
					1
				],
				"metallicFactor":0,
				"roughnessFactor":0.5
			}
		},
		{
			"doubleSided":true,
			"name":"Material.003",
			"pbrMetallicRoughness":{
				"baseColorFactor":[
					0.8010008931159973,
					0,
					0,
					1
				],
				"metallicFactor":0,
				"roughnessFactor":0.5
			}
		}
	],
	"meshes":[
		{
			"name":"Cube",
			"primitives":[
				{
					"attributes":{
						"POSITION":0,
						"NORMAL":1,
						"TEXCOORD_0":2
					},
					"indices":3,
					"material":0
				}
			]
		},
		{
			"name":"Cube.002",
			"primitives":[
				{
					"attributes":{
						"POSITION":4,
						"NORMAL":5,
						"TEXCOORD_0":6
					},
					"indices":7,
					"material":0
				}
			]
		},
		{
			"name":"Cube.011",
			"primitives":[
				{
					"attributes":{
						"POSITION":8,
						"NORMAL":9,
						"TEXCOORD_0":10
					},
					"indices":11
				}
			]
		},
		{
			"name":"Icosphere.001",
			"primitives":[
				{
					"attributes":{
						"POSITION":12,
						"NORMAL":13
					},
					"indices":3,
					"material":1
				}
			]
		},
		{
			"name":"Cube.012",
			"primitives":[
				{
					"attributes":{
						"POSITION":14,
						"NORMAL":15,
						"TEXCOORD_0":16
					},
					"indices":11
				}
			]
		},
		{
			"name":"Icosphere.002",
			"primitives":[
				{
					"attributes":{
						"POSITION":17,
						"NORMAL":18
					},
					"indices":3,
					"material":1
				}
			]
		},
		{
			"name":"Cube.013",
			"primitives":[
				{
					"attributes":{
						"POSITION":19,
						"NORMAL":20,
						"TEXCOORD_0":21
					},
					"indices":11
				}
			]
		},
		{
			"name":"Icosphere.003",
			"primitives":[
				{
					"attributes":{
						"POSITION":22,
						"NORMAL":23
					},
					"indices":3,
					"material":1
				}
			]
		},
		{
			"name":"Cube.014",
			"primitives":[
				{
					"attributes":{
						"POSITION":24,
						"NORMAL":25,
						"TEXCOORD_0":26
					},
					"indices":11
				}
			]
		},
		{
			"name":"Icosphere.004",
			"primitives":[
				{
					"attributes":{
						"POSITION":27,
						"NORMAL":28
					},
					"indices":3,
					"material":1
				}
			]
		},
		{
			"name":"Cube.015",
			"primitives":[
				{
					"attributes":{
						"POSITION":29,
						"NORMAL":30,
						"TEXCOORD_0":31
					},
					"indices":7,
					"material":0
				}
			]
		},
		{
			"name":"Cube.016",
			"primitives":[
				{
					"attributes":{
						"POSITION":32,
						"NORMAL":33,
						"TEXCOORD_0":34
					},
					"indices":7,
					"material":0
				}
			]
		},
		{
			"name":"Icosphere.005",
			"primitives":[
				{
					"attributes":{
						"POSITION":35,
						"NORMAL":36
					},
					"indices":3,
					"material":2
				}
			]
		},
		{
			"name":"Cube.001",
			"primitives":[
				{
					"attributes":{
						"POSITION":37,
						"NORMAL":38,
						"TEXCOORD_0":39
					},
					"indices":11
				}
			]
		},
		{
			"name":"Icosphere.006",
			"primitives":[
				{
					"attributes":{
						"POSITION":40,
						"NORMAL":41
					},
					"indices":3,
					"material":1
				}
			]
		},
		{
			"name":"Cube.004",
			"primitives":[
				{
					"attributes":{
						"POSITION":42,
						"NORMAL":43,
						"TEXCOORD_0":44
					},
					"indices":11
				}
			]
		}
	],
	"accessors":[
		{
			"bufferView":0,
			"componentType":5126,
			"count":240,
			"max":[
				3.8042314052581787,
				3.999999761581421,
				4
			],
			"min":[
				-3.8042314052581787,
				-3.999999761581421,
				-4
			],
			"type":"VEC3"
		},
		{
			"bufferView":1,
			"componentType":5126,
			"count":240,
			"type":"VEC3"
		},
		{
			"bufferView":2,
			"componentType":5126,
			"count":240,
			"type":"VEC2"
		},
		{
			"bufferView":3,
			"componentType":5123,
			"count":240,
			"type":"SCALAR"
		},
		{
			"bufferView":4,
			"componentType":5126,
			"count":24,
			"max":[
				89.66878509521484,
				69.73143005371094,
				1.9017727375030518
			],
			"min":[
				-89.66878509521484,
				-69.73143005371094,
				-1.9017727375030518
			],
			"type":"VEC3"
		},
		{
			"bufferView":5,
			"componentType":5126,
			"count":24,
			"type":"VEC3"
		},
		{
			"bufferView":6,
			"componentType":5126,
			"count":24,
			"type":"VEC2"
		},
		{
			"bufferView":7,
			"componentType":5123,
			"count":36,
			"type":"SCALAR"
		},
		{
			"bufferView":8,
			"componentType":5126,
			"count":24,
			"max":[
				54.11919403076172,
				26.7161808013916,
				2.0408236980438232
			],
			"min":[
				-54.1186408996582,
				-26.71617889404297,
				-2.0408198833465576
			],
			"type":"VEC3"
		},
		{
			"bufferView":9,
			"componentType":5126,
			"count":24,
			"type":"VEC3"
		},
		{
			"bufferView":10,
			"componentType":5126,
			"count":24,
			"type":"VEC2"
		},
		{
			"bufferView":11,
			"componentType":5123,
			"count":36,
			"type":"SCALAR"
		},
		{
			"bufferView":12,
			"componentType":5126,
			"count":240,
			"max":[
				3.8042314052581787,
				3.999999761581421,
				4
			],
			"min":[
				-3.8042314052581787,
				-3.999999761581421,
				-4
			],
			"type":"VEC3"
		},
		{
			"bufferView":13,
			"componentType":5126,
			"count":240,
			"type":"VEC3"
		},
		{
			"bufferView":14,
			"componentType":5126,
			"count":24,
			"max":[
				54.11919403076172,
				26.7161808013916,
				2.0408236980438232
			],
			"min":[
				-54.1186408996582,
				-26.71617889404297,
				-2.0408198833465576
			],
			"type":"VEC3"
		},
		{
			"bufferView":15,
			"componentType":5126,
			"count":24,
			"type":"VEC3"
		},
		{
			"bufferView":16,
			"componentType":5126,
			"count":24,
			"type":"VEC2"
		},
		{
			"bufferView":17,
			"componentType":5126,
			"count":240,
			"max":[
				3.8042314052581787,
				3.999999761581421,
				4
			],
			"min":[
				-3.8042314052581787,
				-3.999999761581421,
				-4
			],
			"type":"VEC3"
		},
		{
			"bufferView":18,
			"componentType":5126,
			"count":240,
			"type":"VEC3"
		},
		{
			"bufferView":19,
			"componentType":5126,
			"count":24,
			"max":[
				54.11919403076172,
				26.7161808013916,
				2.0408236980438232
			],
			"min":[
				-54.1186408996582,
				-26.71617889404297,
				-2.0408198833465576
			],
			"type":"VEC3"
		},
		{
			"bufferView":20,
			"componentType":5126,
			"count":24,
			"type":"VEC3"
		},
		{
			"bufferView":21,
			"componentType":5126,
			"count":24,
			"type":"VEC2"
		},
		{
			"bufferView":22,
			"componentType":5126,
			"count":240,
			"max":[
				3.8042314052581787,
				3.999999761581421,
				4
			],
			"min":[
				-3.8042314052581787,
				-3.999999761581421,
				-4
			],
			"type":"VEC3"
		},
		{
			"bufferView":23,
			"componentType":5126,
			"count":240,
			"type":"VEC3"
		},
		{
			"bufferView":24,
			"componentType":5126,
			"count":24,
			"max":[
				54.11919403076172,
				26.7161808013916,
				2.0408236980438232
			],
			"min":[
				-54.1186408996582,
				-26.71617889404297,
				-2.0408198833465576
			],
			"type":"VEC3"
		},
		{
			"bufferView":25,
			"componentType":5126,
			"count":24,
			"type":"VEC3"
		},
		{
			"bufferView":26,
			"componentType":5126,
			"count":24,
			"type":"VEC2"
		},
		{
			"bufferView":27,
			"componentType":5126,
			"count":240,
			"max":[
				3.8042314052581787,
				3.999999761581421,
				4
			],
			"min":[
				-3.8042314052581787,
				-3.999999761581421,
				-4
			],
			"type":"VEC3"
		},
		{
			"bufferView":28,
			"componentType":5126,
			"count":240,
			"type":"VEC3"
		},
		{
			"bufferView":29,
			"componentType":5126,
			"count":24,
			"max":[
				40.34638977050781,
				40.34636688232422,
				1.699508786201477
			],
			"min":[
				-40.34638977050781,
				-40.346405029296875,
				-1.699508786201477
			],
			"type":"VEC3"
		},
		{
			"bufferView":30,
			"componentType":5126,
			"count":24,
			"type":"VEC3"
		},
		{
			"bufferView":31,
			"componentType":5126,
			"count":24,
			"type":"VEC2"
		},
		{
			"bufferView":32,
			"componentType":5126,
			"count":24,
			"max":[
				40.34638977050781,
				8.334922790527344,
				10.437926292419434
			],
			"min":[
				-40.34638977050781,
				-8.334976196289062,
				-10.437922477722168
			],
			"type":"VEC3"
		},
		{
			"bufferView":33,
			"componentType":5126,
			"count":24,
			"type":"VEC3"
		},
		{
			"bufferView":34,
			"componentType":5126,
			"count":24,
			"type":"VEC2"
		},
		{
			"bufferView":35,
			"componentType":5126,
			"count":240,
			"max":[
				3.8042314052581787,
				3.999999761581421,
				4
			],
			"min":[
				-3.8042314052581787,
				-3.999999761581421,
				-4
			],
			"type":"VEC3"
		},
		{
			"bufferView":36,
			"componentType":5126,
			"count":240,
			"type":"VEC3"
		},
		{
			"bufferView":37,
			"componentType":5126,
			"count":24,
			"max":[
				54.11919403076172,
				26.7161808013916,
				2.0408236980438232
			],
			"min":[
				-54.1186408996582,
				-26.71617889404297,
				-2.0408198833465576
			],
			"type":"VEC3"
		},
		{
			"bufferView":38,
			"componentType":5126,
			"count":24,
			"type":"VEC3"
		},
		{
			"bufferView":39,
			"componentType":5126,
			"count":24,
			"type":"VEC2"
		},
		{
			"bufferView":40,
			"componentType":5126,
			"count":240,
			"max":[
				3.8042314052581787,
				3.999999761581421,
				4
			],
			"min":[
				-3.8042314052581787,
				-3.999999761581421,
				-4
			],
			"type":"VEC3"
		},
		{
			"bufferView":41,
			"componentType":5126,
			"count":240,
			"type":"VEC3"
		},
		{
			"bufferView":42,
			"componentType":5126,
			"count":24,
			"max":[
				1,
				1,
				1
			],
			"min":[
				-1,
				-1,
				-1
			],
			"type":"VEC3"
		},
		{
			"bufferView":43,
			"componentType":5126,
			"count":24,
			"type":"VEC3"
		},
		{
			"bufferView":44,
			"componentType":5126,
			"count":24,
			"type":"VEC2"
		}
	],
	"bufferViews":[
		{
			"buffer":0,
			"byteLength":2880,
			"byteOffset":0,
			"target":34962
		},
		{
			"buffer":0,
			"byteLength":2880,
			"byteOffset":2880,
			"target":34962
		},
		{
			"buffer":0,
			"byteLength":1920,
			"byteOffset":5760,
			"target":34962
		},
		{
			"buffer":0,
			"byteLength":480,
			"byteOffset":7680,
			"target":34963
		},
		{
			"buffer":0,
			"byteLength":288,
			"byteOffset":8160,
			"target":34962
		},
		{
			"buffer":0,
			"byteLength":288,
			"byteOffset":8448,
			"target":34962
		},
		{
			"buffer":0,
			"byteLength":192,
			"byteOffset":8736,
			"target":34962
		},
		{
			"buffer":0,
			"byteLength":72,
			"byteOffset":8928,
			"target":34963
		},
		{
			"buffer":0,
			"byteLength":288,
			"byteOffset":9000,
			"target":34962
		},
		{
			"buffer":0,
			"byteLength":288,
			"byteOffset":9288,
			"target":34962
		},
		{
			"buffer":0,
			"byteLength":192,
			"byteOffset":9576,
			"target":34962
		},
		{
			"buffer":0,
			"byteLength":72,
			"byteOffset":9768,
			"target":34963
		},
		{
			"buffer":0,
			"byteLength":2880,
			"byteOffset":9840,
			"target":34962
		},
		{
			"buffer":0,
			"byteLength":2880,
			"byteOffset":12720,
			"target":34962
		},
		{
			"buffer":0,
			"byteLength":288,
			"byteOffset":15600,
			"target":34962
		},
		{
			"buffer":0,
			"byteLength":288,
			"byteOffset":15888,
			"target":34962
		},
		{
			"buffer":0,
			"byteLength":192,
			"byteOffset":16176,
			"target":34962
		},
		{
			"buffer":0,
			"byteLength":2880,
			"byteOffset":16368,
			"target":34962
		},
		{
			"buffer":0,
			"byteLength":2880,
			"byteOffset":19248,
			"target":34962
		},
		{
			"buffer":0,
			"byteLength":288,
			"byteOffset":22128,
			"target":34962
		},
		{
			"buffer":0,
			"byteLength":288,
			"byteOffset":22416,
			"target":34962
		},
		{
			"buffer":0,
			"byteLength":192,
			"byteOffset":22704,
			"target":34962
		},
		{
			"buffer":0,
			"byteLength":2880,
			"byteOffset":22896,
			"target":34962
		},
		{
			"buffer":0,
			"byteLength":2880,
			"byteOffset":25776,
			"target":34962
		},
		{
			"buffer":0,
			"byteLength":288,
			"byteOffset":28656,
			"target":34962
		},
		{
			"buffer":0,
			"byteLength":288,
			"byteOffset":28944,
			"target":34962
		},
		{
			"buffer":0,
			"byteLength":192,
			"byteOffset":29232,
			"target":34962
		},
		{
			"buffer":0,
			"byteLength":2880,
			"byteOffset":29424,
			"target":34962
		},
		{
			"buffer":0,
			"byteLength":2880,
			"byteOffset":32304,
			"target":34962
		},
		{
			"buffer":0,
			"byteLength":288,
			"byteOffset":35184,
			"target":34962
		},
		{
			"buffer":0,
			"byteLength":288,
			"byteOffset":35472,
			"target":34962
		},
		{
			"buffer":0,
			"byteLength":192,
			"byteOffset":35760,
			"target":34962
		},
		{
			"buffer":0,
			"byteLength":288,
			"byteOffset":35952,
			"target":34962
		},
		{
			"buffer":0,
			"byteLength":288,
			"byteOffset":36240,
			"target":34962
		},
		{
			"buffer":0,
			"byteLength":192,
			"byteOffset":36528,
			"target":34962
		},
		{
			"buffer":0,
			"byteLength":2880,
			"byteOffset":36720,
			"target":34962
		},
		{
			"buffer":0,
			"byteLength":2880,
			"byteOffset":39600,
			"target":34962
		},
		{
			"buffer":0,
			"byteLength":288,
			"byteOffset":42480,
			"target":34962
		},
		{
			"buffer":0,
			"byteLength":288,
			"byteOffset":42768,
			"target":34962
		},
		{
			"buffer":0,
			"byteLength":192,
			"byteOffset":43056,
			"target":34962
		},
		{
			"buffer":0,
			"byteLength":2880,
			"byteOffset":43248,
			"target":34962
		},
		{
			"buffer":0,
			"byteLength":2880,
			"byteOffset":46128,
			"target":34962
		},
		{
			"buffer":0,
			"byteLength":288,
			"byteOffset":49008,
			"target":34962
		},
		{
			"buffer":0,
			"byteLength":288,
			"byteOffset":49296,
			"target":34962
		},
		{
			"buffer":0,
			"byteLength":192,
			"byteOffset":49584,
			"target":34962
		}
	],
	"buffers":[
		{
			"byteLength":49776,
			"uri":"data:application/octet-stream;base64,"
		}
	]
}
