{
	"asset":{
		"generator":"Khronos glTF Blender I/O v4.1.63",
		"version":"2.0"
	},
	"scene":0,
	"scenes":[
		{
			"name":"Scene",
			"nodes":[
				0,
				1,
				2,
				3,
				4,
				5,
				6,
				7,
				8,
				9,
				10,
				11,
				12,
				13,
				14
			]
		}
	],
	"nodes":[
		{
			"extras":{
				"entity":"player"
			},
			"mesh":0,
			"name":"player",
			"translation":[
				-5.587873935699463,
				0.38209325075149536,
				0.7561413049697876
			]
		},
		{
			"extras":{
				"entity":"box_floor"
			},
			"mesh":1,
			"name":"Cube.002",
			"translation":[
				1.4809321165084839,
				-0.5587499141693115,
				-42.60429382324219
			]
		},
		{
			"extras":{
				"entity":"fan",
				"target":{
					"name":"fan_target",
					"type":"Object"
				}
			},
			"mesh":2,
			"name":"fan",
			"translation":[
				93.92936706542969,
				76.95489501953125,
				-31.518905639648438
			]
		},
		{
			"mesh":3,
			"name":"fan_target",
			"translation":[
				27.990774154663086,
				32.68962097167969,
				44.9915771484375
			]
		},
		{
			"extras":{
				"entity":"moving_platform",
				"target":{
					"name":"platform_target",
					"type":"Object"
				}
			},
			"mesh":4,
			"name":"platform",
			"rotation":[
				0,
				0,
				-0.7372773289680481,
				0.6755902171134949
			],
			"translation":[
				-573.2257080078125,
				13.436111450195312,
				-35
			]
		},
		{
			"mesh":5,
			"name":"platform_target",
			"rotation":[
				0,
				0,
				-0.7372773289680481,
				0.6755902171134949
			],
			"translation":[
				-553.61181640625,
				237.62400817871094,
				-35
			]
		},
		{
			"extras":{
				"entity":"rotating_platform",
				"target":{
					"name":"platform_target.001",
					"type":"Object"
				}
			},
			"mesh":6,
			"name":"platform.001",
			"translation":[
				-107.01705932617188,
				-35.20314025878906,
				-36.570281982421875
			]
		},
		{
			"mesh":7,
			"name":"platform_target.001",
			"translation":[
				-102.46880340576172,
				-33.253639221191406,
				25.966567993164062
			]
		},
		{
			"extras":{
				"entity":"rotating_platform",
				"target":{
					"name":"platform_target.002",
					"type":"Object"
				}
			},
			"mesh":8,
			"name":"platform.002",
			"translation":[
				-255.70870971679688,
				-35.20314025878906,
				-36.570281982421875
			]
		},
		{
			"mesh":9,
			"name":"platform_target.002",
			"translation":[
				-251.16046142578125,
				-33.253639221191406,
				68.474853515625
			]
		},
		{
			"extras":{
				"entity":"rotating_platform",
				"target":{
					"name":"platform_target.003",
					"type":"Object"
				}
			},
			"mesh":10,
			"name":"platform.003",
			"translation":[
				-442.72607421875,
				-35.20314025878906,
				-36.570281982421875
			]
		},
		{
			"mesh":11,
			"name":"platform_target.003",
			"translation":[
				-438.1778564453125,
				-33.253639221191406,
				102.85562133789062
			]
		},
		{
			"extras":{
				"entity":"box_floor"
			},
			"mesh":12,
			"name":"Cube.001",
			"translation":[
				-551.1895751953125,
				277.5564880371094,
				-42.60429382324219
			]
		},
		{
			"extras":{
				"entity":"finish"
			},
			"mesh":13,
			"name":"Cube.003",
			"translation":[
				-551.1895751953125,
				308.6658020019531,
				-29.375957489013672
			]
		},
		{
			"extras":{
				"entity":"powerup",
				"type":"jump"
			},
			"mesh":14,
			"name":"Icosphere",
			"translation":[
				-108.53147888183594,
				-33.23838424682617,
				-29.81742286682129
			]
		}
	],
	"materials":[
		{
			"doubleSided":true,
			"name":"Material",
			"pbrMetallicRoughness":{
				"baseColorFactor":[
					0.800000011920929,
					0.800000011920929,
					0.800000011920929,
					1
				],
				"metallicFactor":0,
				"roughnessFactor":0.5
			}
		},
		{
			"doubleSided":true,
			"name":"Material.001",
			"pbrMetallicRoughness":{
				"baseColorFactor":[
					0.8002997636795044,
					0,
					0.5132170915603638,
					1
				],
				"metallicFactor":0,
				"roughnessFactor":0.5
			}
		},
		{
			"doubleSided":true,
			"name":"Material.002",
			"pbrMetallicRoughness":{
				"baseColorFactor":[
					0.8002194166183472,
					0.2864639163017273,
					0,
					1
				],
				"metallicFactor":0,
				"roughnessFactor":0.5
			}
		},
		{
			"doubleSided":true,
			"name":"Material.003",
			"pbrMetallicRoughness":{
				"baseColorFactor":[
					0.8010008931159973,
					0,
					0,
					1
				],
				"metallicFactor":0,
				"roughnessFactor":0.5
			}
		}
	],
	"meshes":[
		{
			"name":"Cube",
			"primitives":[
				{
					"attributes":{
						"POSITION":0,
						"NORMAL":1,
						"TEXCOORD_0":2
					},
					"indices":3,
					"material":0
				}
			]
		},
		{
			"name":"Cube.002",
			"primitives":[
				{
					"attributes":{
						"POSITION":4,
						"NORMAL":5,
						"TEXCOORD_0":6
					},
					"indices":7,
					"material":0
				}
			]
		},
		{
			"name":"Torus",
			"primitives":[
				{
					"attributes":{
						"POSITION":8,
						"NORMAL":9,
						"TEXCOORD_0":10
					},
					"indices":11,
					"material":1
				}
			]
		},
		{
			"name":"Icosphere",
			"primitives":[
				{
					"attributes":{
						"POSITION":12,
						"NORMAL":13
					},
					"indices":3,
					"material":2
				}
			]
		},
		{
			"name":"Cube.011",
			"primitives":[
				{
					"attributes":{
						"POSITION":14,
						"NORMAL":15,
						"TEXCOORD_0":16
					},
					"indices":17
				}
			]
		},
		{
			"name":"Icosphere.001",
			"primitives":[
				{
					"attributes":{
						"POSITION":18,
						"NORMAL":19
					},
					"indices":3,
					"material":2
				}
			]
		},
		{
			"name":"Cube.012",
			"primitives":[
				{
					"attributes":{
						"POSITION":20,
						"NORMAL":21,
						"TEXCOORD_0":22
					},
					"indices":17
				}
			]
		},
		{
			"name":"Icosphere.002",
			"primitives":[
				{
					"attributes":{
						"POSITION":23,
						"NORMAL":24
					},
					"indices":3,
					"material":2
				}
			]
		},
		{
			"name":"Cube.013",
			"primitives":[
				{
					"attributes":{
						"POSITION":25,
						"NORMAL":26,
						"TEXCOORD_0":27
					},
					"indices":17
				}
			]
		},
		{
			"name":"Icosphere.003",
			"primitives":[
				{
					"attributes":{
						"POSITION":28,
						"NORMAL":29
					},
					"indices":3,
					"material":2
				}
			]
		},
		{
			"name":"Cube.014",
			"primitives":[
				{
					"attributes":{
						"POSITION":30,
						"NORMAL":31,
						"TEXCOORD_0":32
					},
					"indices":17
				}
			]
		},
		{
			"name":"Icosphere.004",
			"primitives":[
				{
					"attributes":{
						"POSITION":33,
						"NORMAL":34
					},
					"indices":3,
					"material":2
				}
			]
		},
		{
			"name":"Cube.015",
			"primitives":[
				{
					"attributes":{
						"POSITION":35,
						"NORMAL":36,
						"TEXCOORD_0":37
					},
					"indices":7,
					"material":0
				}
			]
		},
		{
			"name":"Cube.016",
			"primitives":[
				{
					"attributes":{
						"POSITION":38,
						"NORMAL":39,
						"TEXCOORD_0":40
					},
					"indices":7,
					"material":0
				}
			]
		},
		{
			"name":"Icosphere.005",
			"primitives":[
				{
					"attributes":{
						"POSITION":41,
						"NORMAL":42
					},
					"indices":3,
					"material":3
				}
			]
		}
	],
	"accessors":[
		{
			"bufferView":0,
			"componentType":5126,
			"count":240,
			"max":[
				3.8042314052581787,
				3.999999761581421,
				4
			],
			"min":[
				-3.8042314052581787,
				-3.999999761581421,
				-4
			],
			"type":"VEC3"
		},
		{
			"bufferView":1,
			"componentType":5126,
			"count":240,
			"type":"VEC3"
		},
		{
			"bufferView":2,
			"componentType":5126,
			"count":240,
			"type":"VEC2"
		},
		{
			"bufferView":3,
			"componentType":5123,
			"count":240,
			"type":"SCALAR"
		},
		{
			"bufferView":4,
			"componentType":5126,
			"count":24,
			"max":[
				147.6573028564453,
				147.6573028564453,
				1
			],
			"min":[
				-147.6573028564453,
				-147.6573028564453,
				-1
			],
			"type":"VEC3"
		},
		{
			"bufferView":5,
			"componentType":5126,
			"count":24,
			"type":"VEC3"
		},
		{
			"bufferView":6,
			"componentType":5126,
			"count":24,
			"type":"VEC2"
		},
		{
			"bufferView":7,
			"componentType":5123,
			"count":36,
			"type":"SCALAR"
		},
		{
			"bufferView":8,
			"componentType":5126,
			"count":2304,
			"max":[
				24.869998931884766,
				24.869998931884766,
				5.979999542236328
			],
			"min":[
				-24.869998931884766,
				-24.869998931884766,
				-5.979999542236328
			],
			"type":"VEC3"
		},
		{
			"bufferView":9,
			"componentType":5126,
			"count":2304,
			"type":"VEC3"
		},
		{
			"bufferView":10,
			"componentType":5126,
			"count":2304,
			"type":"VEC2"
		},
		{
			"bufferView":11,
			"componentType":5123,
			"count":3456,
			"type":"SCALAR"
		},
		{
			"bufferView":12,
			"componentType":5126,
			"count":240,
			"max":[
				3.8042314052581787,
				3.999999761581421,
				4
			],
			"min":[
				-3.8042314052581787,
				-3.999999761581421,
				-4
			],
			"type":"VEC3"
		},
		{
			"bufferView":13,
			"componentType":5126,
			"count":240,
			"type":"VEC3"
		},
		{
			"bufferView":14,
			"componentType":5126,
			"count":24,
			"max":[
				54.11919403076172,
				26.7161808013916,
				2.0408236980438232
			],
			"min":[
				-54.1186408996582,
				-26.71617889404297,
				-2.0408198833465576
			],
			"type":"VEC3"
		},
		{
			"bufferView":15,
			"componentType":5126,
			"count":24,
			"type":"VEC3"
		},
		{
			"bufferView":16,
			"componentType":5126,
			"count":24,
			"type":"VEC2"
		},
		{
			"bufferView":17,
			"componentType":5123,
			"count":36,
			"type":"SCALAR"
		},
		{
			"bufferView":18,
			"componentType":5126,
			"count":240,
			"max":[
				3.8042314052581787,
				3.999999761581421,
				4
			],
			"min":[
				-3.8042314052581787,
				-3.999999761581421,
				-4
			],
			"type":"VEC3"
		},
		{
			"bufferView":19,
			"componentType":5126,
			"count":240,
			"type":"VEC3"
		},
		{
			"bufferView":20,
			"componentType":5126,
			"count":24,
			"max":[
				54.11919403076172,
				26.7161808013916,
				2.0408236980438232
			],
			"min":[
				-54.1186408996582,
				-26.71617889404297,
				-2.0408198833465576
			],
			"type":"VEC3"
		},
		{
			"bufferView":21,
			"componentType":5126,
			"count":24,
			"type":"VEC3"
		},
		{
			"bufferView":22,
			"componentType":5126,
			"count":24,
			"type":"VEC2"
		},
		{
			"bufferView":23,
			"componentType":5126,
			"count":240,
			"max":[
				3.8042314052581787,
				3.999999761581421,
				4
			],
			"min":[
				-3.8042314052581787,
				-3.999999761581421,
				-4
			],
			"type":"VEC3"
		},
		{
			"bufferView":24,
			"componentType":5126,
			"count":240,
			"type":"VEC3"
		},
		{
			"bufferView":25,
			"componentType":5126,
			"count":24,
			"max":[
				54.11919403076172,
				26.7161808013916,
				2.0408236980438232
			],
			"min":[
				-54.1186408996582,
				-26.71617889404297,
				-2.0408198833465576
			],
			"type":"VEC3"
		},
		{
			"bufferView":26,
			"componentType":5126,
			"count":24,
			"type":"VEC3"
		},
		{
			"bufferView":27,
			"componentType":5126,
			"count":24,
			"type":"VEC2"
		},
		{
			"bufferView":28,
			"componentType":5126,
			"count":240,
			"max":[
				3.8042314052581787,
				3.999999761581421,
				4
			],
			"min":[
				-3.8042314052581787,
				-3.999999761581421,
				-4
			],
			"type":"VEC3"
		},
		{
			"bufferView":29,
			"componentType":5126,
			"count":240,
			"type":"VEC3"
		},
		{
			"bufferView":30,
			"componentType":5126,
			"count":24,
			"max":[
				54.11919403076172,
				26.7161808013916,
				2.0408236980438232
			],
			"min":[
				-54.1186408996582,
				-26.71617889404297,
				-2.0408198833465576
			],
			"type":"VEC3"
		},
		{
			"bufferView":31,
			"componentType":5126,
			"count":24,
			"type":"VEC3"
		},
		{
			"bufferView":32,
			"componentType":5126,
			"count":24,
			"type":"VEC2"
		},
		{
			"bufferView":33,
			"componentType":5126,
			"count":240,
			"max":[
				3.8042314052581787,
				3.999999761581421,
				4
			],
			"min":[
				-3.8042314052581787,
				-3.999999761581421,
				-4
			],
			"type":"VEC3"
		},
		{
			"bufferView":34,
			"componentType":5126,
			"count":240,
			"type":"VEC3"
		},
		{
			"bufferView":35,
			"componentType":5126,
			"count":24,
			"max":[
				40.34638977050781,
				40.34636688232422,
				1.699508786201477
			],
			"min":[
				-40.34638977050781,
				-40.346405029296875,
				-1.699508786201477
			],
			"type":"VEC3"
		},
		{
			"bufferView":36,
			"componentType":5126,
			"count":24,
			"type":"VEC3"
		},
		{
			"bufferView":37,
			"componentType":5126,
			"count":24,
			"type":"VEC2"
		},
		{
			"bufferView":38,
			"componentType":5126,
			"count":24,
			"max":[
				40.34638977050781,
				8.334922790527344,
				10.437926292419434
			],
			"min":[
				-40.34638977050781,
				-8.334976196289062,
				-10.437922477722168
			],
			"type":"VEC3"
		},
		{
			"bufferView":39,
			"componentType":5126,
			"count":24,
			"type":"VEC3"
		},
		{
			"bufferView":40,
			"componentType":5126,
			"count":24,
			"type":"VEC2"
		},
		{
			"bufferView":41,
			"componentType":5126,
			"count":240,
			"max":[
				3.8042314052581787,
				3.999999761581421,
				4
			],
			"min":[
				-3.8042314052581787,
				-3.999999761581421,
				-4
			],
			"type":"VEC3"
		},
		{
			"bufferView":42,
			"componentType":5126,
			"count":240,
			"type":"VEC3"
		}
	],
	"bufferViews":[
		{
			"buffer":0,
			"byteLength":2880,
			"byteOffset":0,
			"target":34962
		},
		{
			"buffer":0,
			"byteLength":2880,
			"byteOffset":2880,
			"target":34962
		},
		{
			"buffer":0,
			"byteLength":1920,
			"byteOffset":5760,
			"target":34962
		},
		{
			"buffer":0,
			"byteLength":480,
			"byteOffset":7680,
			"target":34963
		},
		{
			"buffer":0,
			"byteLength":288,
			"byteOffset":8160,
			"target":34962
		},
		{
			"buffer":0,
			"byteLength":288,
			"byteOffset":8448,
			"target":34962
		},
		{
			"buffer":0,
			"byteLength":192,
			"byteOffset":8736,
			"target":34962
		},
		{
			"buffer":0,
			"byteLength":72,
			"byteOffset":8928,
			"target":34963
		},
		{
			"buffer":0,
			"byteLength":27648,
			"byteOffset":9000,
			"target":34962
		},
		{
			"buffer":0,
			"byteLength":27648,
			"byteOffset":36648,
			"target":34962
		},
		{
			"buffer":0,
			"byteLength":18432,
			"byteOffset":64296,
			"target":34962
		},
		{
			"buffer":0,
			"byteLength":6912,
			"byteOffset":82728,
			"target":34963
		},
		{
			"buffer":0,
			"byteLength":2880,
			"byteOffset":89640,
			"target":34962
		},
		{
			"buffer":0,
			"byteLength":2880,
			"byteOffset":92520,
			"target":34962
		},
		{
			"buffer":0,
			"byteLength":288,
			"byteOffset":95400,
			"target":34962
		},
		{
			"buffer":0,
			"byteLength":288,
			"byteOffset":95688,
			"target":34962
		},
		{
			"buffer":0,
			"byteLength":192,
			"byteOffset":95976,
			"target":34962
		},
		{
			"buffer":0,
			"byteLength":72,
			"byteOffset":96168,
			"target":34963
		},
		{
			"buffer":0,
			"byteLength":2880,
			"byteOffset":96240,
			"target":34962
		},
		{
			"buffer":0,
			"byteLength":2880,
			"byteOffset":99120,
			"target":34962
		},
		{
			"buffer":0,
			"byteLength":288,
			"byteOffset":102000,
			"target":34962
		},
		{
			"buffer":0,
			"byteLength":288,
			"byteOffset":102288,
			"target":34962
		},
		{
			"buffer":0,
			"byteLength":192,
			"byteOffset":102576,
			"target":34962
		},
		{
			"buffer":0,
			"byteLength":2880,
			"byteOffset":102768,
			"target":34962
		},
		{
			"buffer":0,
			"byteLength":2880,
			"byteOffset":105648,
			"target":34962
		},
		{
			"buffer":0,
			"byteLength":288,
			"byteOffset":108528,
			"target":34962
		},
		{
			"buffer":0,
			"byteLength":288,
			"byteOffset":108816,
			"target":34962
		},
		{
			"buffer":0,
			"byteLength":192,
			"byteOffset":109104,
			"target":34962
		},
		{
			"buffer":0,
			"byteLength":2880,
			"byteOffset":109296,
			"target":34962
		},
		{
			"buffer":0,
			"byteLength":2880,
			"byteOffset":112176,
			"target":34962
		},
		{
			"buffer":0,
			"byteLength":288,
			"byteOffset":115056,
			"target":34962
		},
		{
			"buffer":0,
			"byteLength":288,
			"byteOffset":115344,
			"target":34962
		},
		{
			"buffer":0,
			"byteLength":192,
			"byteOffset":115632,
			"target":34962
		},
		{
			"buffer":0,
			"byteLength":2880,
			"byteOffset":115824,
			"target":34962
		},
		{
			"buffer":0,
			"byteLength":2880,
			"byteOffset":118704,
			"target":34962
		},
		{
			"buffer":0,
			"byteLength":288,
			"byteOffset":121584,
			"target":34962
		},
		{
			"buffer":0,
			"byteLength":288,
			"byteOffset":121872,
			"target":34962
		},
		{
			"buffer":0,
			"byteLength":192,
			"byteOffset":122160,
			"target":34962
		},
		{
			"buffer":0,
			"byteLength":288,
			"byteOffset":122352,
			"target":34962
		},
		{
			"buffer":0,
			"byteLength":288,
			"byteOffset":122640,
			"target":34962
		},
		{
			"buffer":0,
			"byteLength":192,
			"byteOffset":122928,
			"target":34962
		},
		{
			"buffer":0,
			"byteLength":2880,
			"byteOffset":123120,
			"target":34962
		},
		{
			"buffer":0,
			"byteLength":2880,
			"byteOffset":126000,
			"target":34962
		}
	],
	"buffers":[
		{
			"byteLength":128880,
			"uri":"data:application/octet-stream;base64,"
		}
	]
}
